<?xml version="1.0" encoding="UTF-8"?>
<!DOCTYPE svg PUBLIC "-//W3C//DTD SVG 1.1//EN" "http://www.w3.org/Graphics/SVG/1.1/DTD/svg11.dtd">
<!-- Creator: CorelDRAW X8 -->
<svg xmlns="http://www.w3.org/2000/svg" xml:space="preserve" width="2.82508in" height="0.594752in" version="1.1" style="shape-rendering:geometricPrecision; text-rendering:geometricPrecision; image-rendering:optimizeQuality; fill-rule:evenodd; clip-rule:evenodd"
viewBox="0 0 428 90"
 xmlns:xlink="http://www.w3.org/1999/xlink">
 <defs>
  <style type="text/css">
   <![CDATA[
    .fil0 {fill:#8FC24A;fill-rule:nonzero}
   ]]>
  </style>
 </defs>
 <g id="Layer_x0020_1">
  <metadata id="CorelCorpID_0Corel-Layer"/>
  <path class="fil0" d="M58 28c0,0 -1,-1 -3,-2 -1,-1 -3,-2 -5,-3 -2,-1 -5,-2 -7,-2 -3,-1 -5,-1 -8,-1 -3,0 -6,0 -8,1 -2,2 -3,3 -3,6 0,2 1,3 2,4 2,2 4,2 7,3 2,1 6,2 9,3 6,2 11,4 15,6 4,2 7,4 9,7 2,4 3,8 3,13 0,5 -1,9 -2,13 -2,3 -5,6 -8,8 -3,2 -6,3 -10,4 -4,1 -8,2 -12,2 -4,0 -9,-1 -13,-2 -4,-1 -9,-2 -13,-3 -4,-2 -8,-4 -11,-6l9 -18c0,1 1,2 3,3 2,1 4,2 7,3 2,1 5,2 8,3 4,1 7,2 10,2 4,0 7,-1 8,-2 2,-1 3,-3 3,-5 0,-2 -1,-4 -3,-5 -2,-1 -4,-2 -7,-3 -3,-1 -7,-2 -11,-3 -5,-2 -10,-4 -13,-6 -4,-2 -6,-4 -8,-7 -2,-3 -2,-7 -2,-11 0,-6 1,-11 4,-15 3,-5 7,-8 12,-10 5,-2 10,-3 16,-3 4,0 8,0 11,1 4,1 8,2 11,4 3,1 6,3 9,4l-9 17z"/>
  <polygon id="1" class="fil0" points="122,89 105,64 98,71 98,89 79,89 79,0 98,0 98,52 120,26 141,26 118,53 143,89 "/>
  <path id="2" class="fil0" d="M176 90c-6,0 -10,-1 -15,-2 -4,-2 -8,-4 -11,-7 -2,-3 -5,-7 -6,-11 -2,-4 -3,-8 -3,-12 0,-6 2,-12 4,-17 3,-5 7,-9 12,-12 5,-3 12,-4 19,-4 7,0 13,1 18,4 5,3 9,7 12,12 3,5 4,11 4,16 0,1 0,2 0,4 0,1 0,2 -1,2l-47 0c0,3 1,5 3,7 1,2 3,4 5,5 2,1 4,1 6,1 3,0 6,-1 9,-2 2,-1 4,-3 5,-5l17 4c-2,3 -4,6 -7,9 -3,3 -7,5 -11,6 -4,1 -8,2 -13,2zm-14 -39l27 0c0,-2 -1,-4 -2,-6 -1,-2 -3,-4 -5,-5 -2,-1 -4,-1 -6,-1 -3,0 -5,0 -7,1 -2,1 -4,3 -5,5 -1,2 -2,4 -2,6z"/>
  <path id="3" class="fil0" d="M249 90c-5,0 -10,-1 -14,-2 -4,-2 -8,-4 -11,-7 -3,-3 -5,-7 -7,-11 -1,-4 -2,-8 -2,-12 0,-6 1,-12 4,-17 3,-5 7,-9 12,-12 5,-3 11,-4 18,-4 8,0 14,1 19,4 5,3 9,7 12,12 2,5 4,11 4,16 0,1 -1,2 -1,4 0,1 0,2 0,2l-47 0c0,3 1,5 2,7 1,2 3,4 5,5 2,1 5,1 7,1 3,0 6,-1 8,-2 3,-1 5,-3 6,-5l16 4c-1,3 -4,6 -7,9 -3,3 -6,5 -10,6 -4,1 -9,2 -14,2zm-14 -39l28 0c0,-2 -1,-4 -2,-6 -1,-2 -3,-4 -5,-5 -2,-1 -4,-1 -7,-1 -2,0 -5,0 -7,1 -2,1 -3,3 -4,5 -2,2 -2,4 -3,6z"/>
  <path id="4" class="fil0" d="M354 89l-19 0 0 -35c0,-4 -1,-7 -3,-9 -1,-2 -3,-3 -6,-3 -2,0 -4,0 -6,1 -1,1 -3,3 -5,4 -1,2 -2,4 -3,6l0 36 -20 0 0 -63 18 0 0 11c2,-3 4,-5 6,-7 3,-2 5,-3 9,-4 3,-1 6,-1 10,-1 4,0 7,0 10,2 2,1 4,3 6,6 1,2 2,5 2,8 1,2 1,5 1,8l0 40z"/>
  <path id="5" class="fil0" d="M363 70c0,-4 1,-8 4,-11 2,-3 5,-5 9,-7 4,-2 9,-3 15,-3 2,0 5,0 7,1 3,0 5,1 7,2l0 -3c0,-3 -1,-6 -3,-8 -2,-2 -6,-3 -10,-3 -4,0 -7,1 -10,2 -3,1 -6,3 -10,5l-6 -12c4,-3 9,-5 13,-6 5,-2 10,-2 15,-2 10,0 17,2 22,6 6,5 8,12 8,20l0 16c0,2 1,4 1,4 1,1 2,2 3,2l0 16c-1,0 -3,1 -4,1 -2,0 -3,0 -4,0 -3,0 -6,-1 -8,-2 -2,-2 -3,-4 -4,-6l0 -3c-3,4 -6,6 -10,8 -4,2 -8,3 -13,3 -4,0 -8,-1 -11,-2 -3,-2 -6,-5 -8,-8 -2,-3 -3,-6 -3,-10zm39 2c1,0 1,-1 2,-2 1,-1 1,-2 1,-2l0 -6c-2,-1 -4,-1 -6,-1 -2,-1 -3,-1 -5,-1 -4,0 -7,1 -9,2 -2,2 -4,4 -4,6 0,2 1,3 2,4 0,1 2,2 3,3 1,1 3,1 5,1 2,0 4,0 6,-1 2,-1 3,-1 5,-3z"/>
 </g>
</svg>
