<?xml version="1.0" encoding="UTF-8"?>
<!DOCTYPE svg PUBLIC "-//W3C//DTD SVG 1.1//EN" "http://www.w3.org/Graphics/SVG/1.1/DTD/svg11.dtd">
<!-- Creator: CorelDRAW X8 -->
<svg xmlns="http://www.w3.org/2000/svg" xml:space="preserve" width="4.09637in" height="0.713343in" version="1.1" style="shape-rendering:geometricPrecision; text-rendering:geometricPrecision; image-rendering:optimizeQuality; fill-rule:evenodd; clip-rule:evenodd"
viewBox="0 0 555 97"
 xmlns:xlink="http://www.w3.org/1999/xlink">
 <defs>
  <style type="text/css">
   <![CDATA[
    .fil1 {fill:#8FC24A}
    .fil0 {fill:#4B3B2D}
    .fil2 {fill:#8FC24A;fill-rule:nonzero}
    .fil3 {fill:#4B3B2D;fill-rule:nonzero}
   ]]>
  </style>
 </defs>
 <g id="Layer_x0020_1">
  <metadata id="CorelCorpID_0Corel-Layer"/>
  <g id="_335358000">
   <g>
    <g>
     <polygon class="fil0" points="67,1 98,1 61,88 30,88 "/>
     <polygon class="fil0" points="141,1 172,1 135,88 104,88 "/>
     <rect class="fil1" transform="matrix(-0.607761 -0 0.214648 0.503767 97.5472 0.750209)" width="50.8007" height="173.184"/>
     <polygon class="fil0" points="0,63 0,20 8,1 39,1 13,63 "/>
     <polygon class="fil1" points="0,63 22,88 61,88 0,20 "/>
    </g>
    <g>
     <path class="fil2" d="M523 37l13 0c2,0 4,-1 6,-1 2,-1 4,-2 6,-3 1,-1 3,-2 4,-4 1,-1 2,-3 2,-5 1,-1 1,-3 1,-5l0 0c0,-3 0,-5 -1,-8 -1,-2 -2,-4 -4,-5 -2,-2 -4,-3 -6,-4 -3,-1 -5,-1 -8,-1l-13 0 0 36zm13 -31c2,0 4,1 5,1 2,1 3,2 4,3 1,1 2,2 3,4 0,1 1,3 1,5l0 0c0,2 -1,3 -1,5 -1,1 -2,2 -3,3 -1,2 -2,2 -4,3 -1,1 -3,1 -5,1l-7 0 0 -25 7 0z"/>
     <path class="fil2" d="M492 37c3,0 5,0 7,-1 1,0 3,-1 5,-2 1,-1 3,-3 4,-4 1,-2 2,-4 2,-5 1,-2 1,-4 1,-6l0 0c0,-2 0,-4 -1,-6 0,-2 -1,-4 -2,-5 -1,-2 -3,-3 -4,-4 -2,-2 -3,-2 -5,-3 -2,-1 -4,-1 -7,-1 -2,0 -4,0 -6,1 -2,1 -3,1 -5,3 -2,1 -3,2 -4,4 -1,1 -2,3 -3,5 0,2 0,4 0,6l0 0c0,2 0,4 0,6 1,1 2,3 3,5 1,1 2,3 4,4 1,1 3,2 5,2 2,1 4,1 6,1zm0 -6c-1,0 -3,0 -5,-1 -1,0 -2,-1 -3,-2 -1,-1 -2,-3 -3,-4 -1,-2 -1,-4 -1,-5l0 0c0,-2 0,-4 1,-5 1,-2 1,-3 3,-4 1,-2 2,-3 3,-3 2,-1 4,-1 5,-1 2,0 4,0 5,1 2,1 3,1 4,3 1,1 2,2 3,4 0,1 1,3 1,5l0 0c0,2 -1,3 -1,5 -1,1 -2,3 -3,4 -1,1 -2,2 -4,2 -1,1 -3,1 -5,1z"/>
     <path class="fil2" d="M443 37c3,0 5,0 7,-1 1,0 3,-1 5,-2 1,-1 3,-3 4,-4 1,-2 2,-4 2,-5 1,-2 1,-4 1,-6l0 0c0,-2 0,-4 -1,-6 0,-2 -1,-4 -2,-5 -1,-2 -3,-3 -4,-4 -2,-2 -3,-2 -5,-3 -2,-1 -4,-1 -7,-1 -2,0 -4,0 -6,1 -2,1 -4,1 -5,3 -2,1 -3,2 -4,4 -1,1 -2,3 -3,5 0,2 -1,4 -1,6l0 0c0,2 1,4 1,6 1,1 2,3 3,5 1,1 2,3 4,4 1,1 3,2 5,2 2,1 4,1 6,1zm0 -6c-1,0 -3,0 -5,-1 -1,0 -2,-1 -3,-2 -2,-1 -2,-3 -3,-4 -1,-2 -1,-4 -1,-5l0 0c0,-2 0,-4 1,-5 1,-2 1,-3 3,-4 1,-2 2,-3 3,-3 2,-1 3,-1 5,-1 2,0 4,0 5,1 2,1 3,1 4,3 1,1 2,2 3,4 0,1 1,3 1,5l0 0c0,2 -1,3 -1,5 -1,1 -2,3 -3,4 -1,1 -2,2 -4,2 -1,1 -3,1 -5,1z"/>
     <polygon class="fil2" points="372,37 377,37 386,11 395,37 401,37 413,1 406,1 398,27 389,1 384,1 375,27 366,1 359,1 "/>
     <polygon class="fil3" points="330,37 337,37 337,6 348,6 348,1 319,1 319,6 330,6 "/>
     <polygon class="fil3" points="276,37 282,37 282,11 302,37 307,37 307,1 301,1 301,26 282,1 276,1 "/>
     <polygon class="fil3" points="238,37 265,37 265,31 244,31 244,21 262,21 262,16 244,16 244,6 264,6 264,1 238,1 "/>
     <polygon class="fil3" points="194,37 201,37 201,26 206,20 219,37 226,37 211,16 226,1 218,1 201,19 201,1 194,1 "/>
    </g>
    <g>
     <path class="fil3" d="M345 89c2,0 3,-1 5,-1 1,0 2,-1 3,-2 1,0 2,-1 2,-2 1,-2 1,-3 1,-4l0 0c0,-1 0,-2 -1,-3 0,-1 -1,-2 -1,-3 -1,0 -2,-1 -3,-2 -2,0 -3,0 -5,-1 -1,0 -2,-1 -3,-1 -1,0 -2,0 -2,-1 -1,0 -1,-1 -1,-1 0,0 -1,-1 -1,-1l0 -1c0,0 1,-1 1,-1 0,-1 1,-1 2,-2 0,0 1,0 2,0 2,0 3,0 4,1 2,0 3,1 4,2l3 -4c-1,-1 -3,-2 -5,-3 -2,0 -4,-1 -6,-1 -1,0 -2,1 -4,1 -1,0 -2,1 -3,2 -1,0 -2,1 -2,2 0,1 -1,3 -1,4l0 0c0,1 0,2 1,3 0,1 1,2 2,3 1,1 2,1 3,2 1,0 3,0 4,1 1,0 3,0 3,1 1,0 2,0 2,1 1,0 1,0 1,1 1,0 1,1 1,1l0 0c0,1 0,2 -1,2 0,1 -1,1 -2,2 0,0 -1,0 -2,0 -2,0 -3,0 -4,0 -1,-1 -2,-1 -3,-2 -1,0 -2,-1 -3,-2l-3 4c2,2 4,3 6,4 2,0 4,1 6,1z"/>
     <polygon class="fil3" points="303,89 325,89 325,84 308,84 308,76 323,76 323,71 308,71 308,64 325,64 325,59 303,59 "/>
     <polygon class="fil3" points="266,89 271,89 271,68 280,81 280,81 290,68 290,89 295,89 295,59 289,59 280,73 271,59 266,59 "/>
     <path class="fil3" d="M242 89c2,0 4,0 5,-1 2,0 3,-1 5,-2 1,-1 2,-2 3,-3 1,-1 1,-3 2,-4 0,-2 1,-3 1,-5l0 0c0,-2 -1,-3 -1,-5 0,-1 -1,-3 -2,-4 -1,-1 -2,-2 -3,-3 -2,-1 -3,-2 -5,-3 -1,0 -3,0 -5,0 -1,0 -3,0 -5,0 -1,1 -3,2 -4,3 -1,1 -2,2 -3,3 -1,1 -2,3 -2,4 -1,2 -1,3 -1,5l0 0c0,2 0,3 1,5 0,1 1,3 2,4 1,1 2,2 3,3 1,1 3,2 4,2 2,1 3,1 5,1zm0 -5c-1,0 -2,0 -4,0 -1,-1 -2,-2 -3,-3 -1,-1 -1,-2 -2,-3 0,-1 -1,-3 -1,-4l0 0c0,-2 1,-3 1,-4 0,-1 1,-3 2,-4 1,0 2,-1 3,-2 1,0 3,-1 4,-1 2,0 3,1 4,1 2,1 3,2 3,3 1,0 2,2 3,3 0,1 0,2 0,4l0 0c0,1 0,3 0,4 -1,1 -2,2 -2,3 -1,1 -2,2 -4,3 -1,0 -2,0 -4,0z"/>
     <polygon class="fil3" points="194,89 199,89 199,76 214,76 214,89 219,89 219,59 214,59 214,71 199,71 199,59 194,59 "/>
    </g>
   </g>
   <g>
    <g>
     <path class="fil3" d="M555 67l-6 0 -4 7 -5 -7 -5 0 7 11 -8 10 5 0 5 -7 6 7 5 0 -8 -11 8 -10zm-32 4c3,0 5,2 5,4l-10 0c1,-3 3,-4 5,-4zm5 11c-1,2 -2,3 -5,3 -3,0 -5,-2 -5,-6l14 0 0 -2c0,-6 -3,-10 -9,-10 -6,0 -10,4 -10,11 0,6 4,11 10,11 5,0 9,-3 9,-7l-4 0zm-19 -25l-5 0 0 31 5 0 0 -31zm-25 17c1,-2 3,-3 5,-3 3,0 6,3 6,7 0,4 -3,7 -6,7 -2,0 -4,-1 -5,-3l0 -8zm0 13c1,1 3,2 5,2 7,0 10,-5 10,-11 0,-6 -3,-11 -10,-11 -2,0 -4,1 -5,2l0 -2 -5 0 0 30 5 0 0 -10z"/>
     <path class="fil2" d="M474 61c0,-2 -2,-3 -3,-3 -2,0 -3,1 -3,3 0,1 1,3 3,3 1,0 3,-2 3,-3zm-1 6l-5 0 0 21 5 0 0 -21zm-20 16c0,4 3,6 7,6 1,0 3,0 3,-1l0 -4c0,0 -1,1 -2,1 -2,0 -3,-1 -3,-3l0 -11 5 0 0 -4 -5 0 0 -6 -5 0 0 6 -3 0 0 4 3 0 0 12zm-7 -26l-5 0 0 31 5 0 0 -31zm-11 10l-4 0 0 14c-1,2 -3,4 -5,4 -3,0 -4,-2 -4,-5l0 -13 -5 0 0 14c0,5 3,8 8,8 2,0 4,-1 6,-3l0 2 4 0 0 -21zm-36 21l8 -20 0 20 4 0 0 -29 -5 0 -9 23 -9 -23 -6 0 0 29 5 0 0 -20 8 20 4 0z"/>
    </g>
    <polygon class="fil3" points="371,54 371,94 370,94 370,54 "/>
   </g>
  </g>
 </g>
</svg>
