<?xml version="1.0" encoding="UTF-8"?>
<!DOCTYPE svg PUBLIC "-//W3C//DTD SVG 1.1//EN" "http://www.w3.org/Graphics/SVG/1.1/DTD/svg11.dtd">
<!-- Creator: CorelDRAW X8 -->
<svg xmlns="http://www.w3.org/2000/svg" xml:space="preserve" width="2.94386in" height="0.839339in" version="1.1" style="shape-rendering:geometricPrecision; text-rendering:geometricPrecision; image-rendering:optimizeQuality; fill-rule:evenodd; clip-rule:evenodd"
viewBox="0 0 524 149"
 xmlns:xlink="http://www.w3.org/1999/xlink">
 <defs>
  <style type="text/css">
   <![CDATA[
    .fil1 {fill:#FEFEFE}
    .fil0 {fill:#FEFEFE;fill-rule:nonzero}
   ]]>
  </style>
 </defs>
 <g id="Layer_x0020_1">
  <metadata id="CorelCorpID_0Corel-Layer"/>
  <g id="_1178441192">
   <path class="fil0" d="M103 65c3,-2 6,-4 8,-7l9 0 0 47 -10 0 0 -36c-2,1 -5,3 -7,5l0 -9zm48 17c0,14 -1,23 -14,23 -12,0 -13,-9 -13,-23 0,-18 2,-24 13,-24 12,0 14,6 14,24zm-18 0c0,14 1,17 4,17 4,0 4,-3 4,-17 0,-14 0,-17 -4,-17 -3,0 -4,3 -4,17zm-63 -20c8,-1 4,-1 7,-1 9,0 11,6 11,17 0,14 -5,17 -15,17 -9,0 -14,-3 -14,-12l11 0c0,1 0,3 0,4 1,1 2,1 3,1 4,0 5,-3 5,-10 0,-3 0,-10 -4,-10 -3,0 -4,3 -4,6l-10 0 0 -30 26 0 0 8 -16 0 0 10zm-53 34l2 -2c5,-5 15,-15 15,-21 0,-4 -3,-6 -7,-6 -4,0 -6,2 -9,4l0 -10c3,-2 7,-3 13,-3 9,0 15,4 15,13 0,9 -12,21 -15,23l-1 2 0 0 16 0 0 9 -29 0 0 -9z"/>
   <path class="fil0" d="M91 74l7 0 0 -9 -7 0 0 9zm-42 0l7 0 0 -9 -7 0 0 9zm-2 -64l109 41 -3 8 -92 -35 -49 36 -12 -16 47 -34zm-47 129l50 0 8 -30 -51 0 -7 30zm49 -22l-1 2 0 0c1,-1 3,-2 4,-2l0 4c-4,-1 -4,1 -4,3l-2 7 -4 0 3 -14 4 0zm-8 11c-1,1 -1,2 -1,3l-3 0 0 -2 0 0c-1,2 -2,2 -4,2 -3,0 -3,-2 -3,-4 1,-5 5,-5 8,-5l0 -1c1,-1 1,-2 -1,-2 -1,0 -1,1 -2,2l-3 0c0,-1 1,-2 2,-3 1,-1 2,-1 4,-1 4,0 5,2 4,5l-1 6zm-7 -1c0,1 0,2 1,2 2,0 2,-3 3,-5 -2,0 -3,0 -4,3zm-12 -2c0,1 -1,4 1,4 1,0 2,-1 2,-3l4 0c0,2 -1,3 -2,4 -1,1 -3,1 -5,1 -4,0 -4,-3 -4,-7 1,-4 2,-7 7,-7 6,0 5,3 4,8l-7 0zm4 -2c0,-2 1,-4 -1,-4 -2,0 -2,3 -2,4l3 0zm-15 1l-2 -12 4 0 2 8 4 -8 5 0 -9 12 -1 7 -4 0 1 -7zm49 -12l4 0 0 13 0 0 6 -13 4 0 0 13 0 0 6 -13 4 0 -9 19 -4 0 0 -14 0 0 -7 14 -4 0 0 -19zm30 16c0,1 0,2 0,3l-3 0 0 -2 0 0c-1,2 -3,2 -4,2 -3,0 -3,-2 -3,-4 1,-5 5,-5 8,-5l0 -1c1,-1 1,-2 -1,-2 -1,0 -1,1 -2,2l-3 0c0,-1 1,-2 2,-3 1,-1 2,-1 3,-1 5,0 5,2 5,5l-2 6zm-6 -1c0,1 0,2 1,2 2,0 2,-3 3,-5 -2,0 -4,0 -4,3zm15 -10l-1 2 0 0c2,-1 3,-2 4,-2l0 4c-4,-1 -4,1 -4,3l-2 7 -4 0 3 -14 4 0zm9 0l-1 2 0 0c1,-1 3,-2 4,-2l-1 4c-3,-1 -3,1 -4,3l-1 7 -4 0 3 -14 4 0zm12 11c0,1 0,2 0,3l-4 0 0 -2 0 0c-1,2 -2,2 -4,2 -2,0 -3,-2 -2,-4 1,-5 4,-5 8,-5l0 -1c0,-1 0,-2 -1,-2 -2,0 -2,1 -2,2l-4 0c0,-1 1,-2 2,-3 1,-1 2,-1 4,-1 5,0 5,2 4,5l-1 6zm-7 -1c0,1 0,2 1,2 2,0 3,-3 3,-5 -2,0 -3,0 -4,3zm15 -8l0 0c0,-1 1,-1 2,-1 0,-1 1,-1 1,-1 2,0 4,1 3,3l-2 11 -4 0 2 -9c0,-2 0,-3 -1,-3 -1,0 -1,1 -2,3l-2 9 -4 0 3 -14 4 0 0 2zm8 -2l2 0 0 -2 4 -1 -1 3 2 0 0 3 -2 0 -2 7c0,1 0,2 1,2 0,0 1,0 1,0l-1 2c0,0 -1,0 -2,0 -3,0 -3,-2 -3,-3l2 -8 -1 0 0 -3zm9 14l-1 -14 4 0 0 10 0 0 4 -10 3 0 -9 19 -4 0 3 -5zm10 6c1,0 2,0 3,-1 0,0 1,-1 1,-2 0,-1 -1,-2 -1,-3 -1,-1 -2,-1 -3,-1 -1,0 -2,0 -3,1 -1,1 -1,2 -1,3 0,1 0,2 1,2 1,1 2,1 3,1zm3 0c-1,1 -2,1 -3,1 -1,0 -3,0 -3,-1 -1,-1 -2,-2 -2,-3 0,-2 1,-3 2,-4 0,-1 2,-1 3,-1 1,0 2,0 3,1l0 0c1,1 2,2 2,4 0,1 -1,2 -2,3zm-4 -1l-1 0 0 -5 2 0c1,0 2,0 2,1 0,1 0,1 -1,1l0 1c1,0 1,0 1,1 0,0 0,1 0,1l-1 0c0,0 0,-1 0,-1 0,-1 0,-1 -1,-1l-1 0 0 2zm0 -3l1 0c1,0 1,0 1,-1 0,0 0,0 -1,0l-1 0 0 1z"/>
  </g>
  <g id="_1178442632">
   <g id="Art">
    <path class="fil1" d="M299 110c-9,0 -15,6 -15,16 0,10 6,16 15,16 10,0 15,-6 15,-16 0,-10 -5,-16 -15,-16zm0 26c-5,0 -8,-4 -8,-10 0,-6 3,-10 8,-10 5,0 9,4 9,10 0,6 -4,10 -9,10zm32 -18c-3,0 -6,2 -7,4l-1 0 0 -3 -6 0 0 30 6 0 0 -11 1 0c1,3 4,4 7,4 5,0 10,-4 10,-12 0,-8 -5,-12 -10,-12l0 0zm-2 19c-3,0 -6,-3 -6,-7 0,-4 3,-6 6,-6 3,0 5,2 5,6 0,5 -2,7 -5,7zm90 -5c0,6 -5,10 -13,10 -10,0 -12,-5 -12,-10 0,0 0,-1 0,-1l6 0c0,0 0,1 0,1 0,3 2,4 6,4 4,0 6,-1 6,-3 0,-6 -18,-2 -18,-14 0,-5 5,-9 12,-9 8,0 12,4 12,10 0,0 0,0 0,0l-6 0c0,0 0,0 0,0 0,-3 -2,-4 -6,-4 -3,0 -5,1 -5,3 0,6 18,2 18,13l0 0zm59 -2c0,5 2,7 5,7 2,0 4,-1 5,-4l6 0c-1,6 -6,9 -11,9 -7,0 -12,-4 -12,-12 0,-8 5,-12 12,-12 5,0 10,3 11,9l-6 0c-1,-3 -3,-4 -5,-4 -3,0 -5,3 -5,7l0 0zm-10 -2c0,-8 -5,-9 -10,-10l0 0c0,0 0,0 0,0 -5,0 -9,2 -10,8l6 0c0,-2 2,-3 4,-3 2,0 4,2 4,4l0 0c0,0 -3,0 -5,1 -6,0 -10,2 -10,7 0,4 3,7 7,7 3,0 6,-2 7,-4l1 0c0,2 2,3 3,3l2 0c0,0 3,0 3,0l0 -4 -2 0 0 -9 0 0zm-6 4c-1,3 -3,5 -6,5 -2,0 -3,-1 -3,-2 0,-2 2,-3 5,-3 1,-1 4,-1 4,-1 0,0 0,1 0,1l0 0zm56 -3c0,-6 -4,-11 -10,-11 -7,0 -12,4 -12,12 0,8 4,12 12,12 5,0 8,-3 10,-7l-6 0c-1,1 -3,2 -4,2 -3,0 -6,-2 -6,-5l16 0c0,-1 0,-2 0,-3zm-16 -1c1,-3 3,-5 5,-5 3,0 5,2 5,5l-10 0zm-67 -10c-3,0 -5,2 -7,4l0 0 -1 -3 -5 0 0 30 6 0 0 -11 0 0c2,3 4,4 7,4 5,0 10,-4 10,-12 0,-8 -5,-12 -10,-12l0 0zm-2 19c-3,0 -5,-3 -5,-7 0,-4 2,-6 5,-6 4,0 6,2 6,6 0,5 -2,7 -6,7zm-78 -19c-7,0 -12,4 -12,12 0,8 4,12 12,12 5,0 9,-3 10,-7l-6 0c-1,1 -3,2 -4,2 -3,0 -6,-2 -6,-5l16 0c0,-1 0,-2 0,-3 0,-6 -4,-11 -10,-11l0 0zm-6 10c1,-3 3,-5 5,-5 3,0 5,2 5,5l-10 0 0 0zm41 0l0 13 -6 0 0 -12c0,-4 -1,-5 -4,-5 -3,0 -6,2 -6,5l0 12 -6 0 0 -22 6 0 0 3 1 0c2,-3 4,-4 7,-4 4,0 8,3 8,10l0 0zm48 -110l-34 -17c-2,-1 -4,-1 -6,0l-34 17c-2,2 -4,4 -4,7l0 40c0,3 2,6 4,7l34 18c2,0 4,0 6,0l34 -18c2,-1 4,-4 4,-7l0 -40c0,-3 -2,-5 -4,-7zm-39 58c0,1 -1,2 -2,1l-28 -13c-1,0 -1,-1 -1,-1l0 -36c0,0 0,-1 1,-1l28 -13c1,0 2,0 2,1l0 62 0 0zm-24 -45l14 -6c1,0 2,1 2,1l0 38c0,1 -1,1 -2,1l-14 -6c0,0 -1,0 -1,-1l0 -26c0,0 1,-1 1,-1l0 0z"/>
   </g>
   <g id="Registered_Mark" data-name="Registered Mark">
    <g>
     <path class="fil1" d="M522 113c0,0 0,0 0,0 0,-1 0,-1 0,-1 0,0 0,0 0,0 0,0 0,0 0,-1 0,0 -1,0 -1,0l-1 0 0 3 1 0 0 -1 0 0 1 1 0 0 0 -1c0,0 0,0 0,0l0 0zm-1 -1l0 0c0,0 0,0 0,0 1,0 1,0 1,0 0,0 0,0 -1,1 0,0 0,0 0,0l0 0 0 -1 0 0z"/>
     <path class="fil1" d="M523 112c0,-1 0,-1 0,-1 0,0 -1,-1 -1,-1 0,0 -1,0 -1,0 0,0 -1,0 -1,0 0,0 -1,1 -1,1 0,0 0,0 0,1 -1,0 -1,0 -1,1 0,0 0,0 1,1 0,0 0,0 0,1 0,0 1,0 1,0 0,0 1,0 1,0 0,0 1,0 1,0 0,0 1,0 1,0 0,-1 0,-1 0,-1 1,-1 1,-1 1,-1 0,-1 0,-1 -1,-1zm0 2c0,0 -1,0 -1,1 0,0 -1,0 -1,0 0,0 -1,0 -1,0 0,-1 -1,-1 -1,-1 0,-1 0,-1 0,-1 0,-1 0,-1 0,-1 0,-1 1,-1 1,-1 0,0 1,0 1,0 0,0 1,0 1,0 0,0 1,0 1,1 0,0 0,0 0,1 0,0 0,0 0,1z"/>
    </g>
   </g>
  </g>
 </g>
</svg>
