<svg version="1.2" xmlns="http://www.w3.org/2000/svg" viewBox="0 0 214 38" width="214" height="38"><defs><clipPath clipPathUnits="userSpaceOnUse" id="cp1"><path d="m-188-4286h4596v5316h-4596z"/></clipPath></defs><style>.a{fill:#ebecec}.b{fill:#86c545}.c{fill:#fff}</style><g clip-path="url(#cp1)"><path fill-rule="evenodd" class="a" d="m26.1 0.9h11.8l-14.2 33.5h-11.9zm28.7 0h11.8l-14.3 33.5h-11.8z"/><path fill-rule="evenodd" class="b" d="m37.9 0.9h-11.8l14.2 33.5h11.9z"/><path fill-rule="evenodd" class="a" d="m0.5 24.9v-16.5l3.2-7.5h11.9l-10.3 24.1z"/><path fill-rule="evenodd" class="b" d="m0.5 8.4l23.2 26h-14.7l-8.5-9.5zm200.7-7.6h5.2q1.6 0 3 0.5 1.3 0.5 2.3 1.5 1 0.9 1.5 2.2 0.5 1.2 0.5 2.7 0 1.2-0.3 2.2-0.4 1.1-1 2-0.7 0.8-1.6 1.4-0.9 0.7-2 1-1.1 0.4-2.4 0.4h-5.2zm2.4 2.2v9.4h2.8q1.1 0 1.9-0.3 0.9-0.4 1.6-1 0.6-0.6 0.9-1.5 0.4-0.8 0.4-1.9 0-1-0.4-1.9-0.3-0.8-0.9-1.5-0.7-0.6-1.6-1-0.8-0.3-1.9-0.3z"/><path fill-rule="evenodd" class="b" d="m187.2 14.6q-1.1-0.4-2-1-0.9-0.7-1.5-1.6-0.7-0.9-1-1.9-0.3-1.1-0.4-2.3 0.1-1.2 0.4-2.3 0.3-1 1-1.9 0.6-0.9 1.5-1.6 0.9-0.7 2-1 1.1-0.4 2.4-0.4 1.3 0 2.4 0.4 1.1 0.3 2 1 0.9 0.7 1.5 1.5 0.7 0.9 1 2 0.3 1.1 0.3 2.2v0.1q0 1.2-0.3 2.2-0.3 1.1-1 2-0.6 0.9-1.5 1.6-0.9 0.6-2 1-1.1 0.3-2.4 0.4-1.3-0.1-2.4-0.4zm4.3-2.3q0.9-0.4 1.5-1 0.6-0.7 0.9-1.6 0.4-0.9 0.4-1.9 0-1-0.4-1.9-0.3-0.9-0.9-1.6-0.7-0.7-1.5-1.1-0.9-0.3-1.9-0.4-1.1 0.1-1.9 0.4-0.9 0.4-1.5 1.1-0.6 0.7-1 1.5-0.3 0.9-0.3 1.9v0.1q0 1 0.4 1.9 0.3 0.9 0.9 1.5 0.7 0.7 1.5 1.1 0.9 0.4 1.9 0.4 1.1 0 1.9-0.4zm-23.2 2.3q-1.1-0.4-1.9-1-0.9-0.7-1.6-1.6-0.6-0.9-0.9-1.9-0.4-1.1-0.4-2.3 0-1.2 0.4-2.3 0.3-1 0.9-1.9 0.7-0.9 1.6-1.6 0.9-0.7 2-1 1.1-0.4 2.4-0.4 1.3 0 2.4 0.4 1.1 0.3 2 1 0.8 0.7 1.5 1.5 0.6 0.9 1 2 0.3 1.1 0.3 2.2v0.1q0 1.2-0.3 2.2-0.4 1.1-1 2-0.7 0.9-1.6 1.6-0.9 0.6-2 1-1.1 0.3-2.4 0.4-1.2-0.1-2.4-0.4zm4.4-2.3q0.8-0.4 1.4-1 0.7-0.7 1-1.6 0.3-0.9 0.3-1.9 0-1-0.3-1.9-0.3-0.9-1-1.6-0.6-0.7-1.5-1.1-0.8-0.3-1.9-0.4-1 0.1-1.9 0.4-0.8 0.4-1.4 1.1-0.7 0.7-1 1.5-0.3 0.9-0.3 1.9v0.1q0 1 0.3 1.9 0.4 0.9 1 1.5 0.6 0.7 1.5 1.1 0.8 0.4 1.9 0.4 1 0 1.9-0.4zm-34.2-11.5h2.6l3.3 10.3 3.4-10.3h2.1l3.4 10.3 3.3-10.3h2.6l-4.9 14h-2.1l-3.4-9.9-3.4 9.9h-2.1z"/><path fill-rule="evenodd" class="c" d="m127.3 3.1h-4.4v-2.3h11.2v2.3h-4.4v11.6h-2.4zm-20.8-2.2h2.2l7.4 9.5v-9.5h2.4v13.8h-2l-7.6-9.8v9.8h-2.4zm-14.8 0h10.3v2.2h-7.8v3.6h6.9v2.2h-6.9v3.7h7.9v2.2h-10.4zm-16.6 0h2.4v7l6.6-7h3l-5.7 5.9 6 7.9h-3l-4.7-6.2-2.2 2.2v4h-2.4zm55.5 33.4q-1.2-0.4-2.2-1.3l1.2-1.5q0.5 0.5 1.1 0.8 0.6 0.4 1.2 0.5 0.6 0.2 1.3 0.2 0.6 0 1-0.2 0.5-0.1 0.7-0.5 0.3-0.3 0.3-0.7 0-0.3-0.1-0.6-0.1-0.2-0.4-0.4-0.3-0.2-0.8-0.4-0.5-0.2-1.3-0.4-0.9-0.2-1.6-0.5-0.7-0.2-1.2-0.6-0.4-0.4-0.7-0.9-0.2-0.6-0.2-1.4 0-0.7 0.2-1.3 0.3-0.6 0.8-1.1 0.6-0.4 1.3-0.6 0.7-0.3 1.5-0.3 1.3 0 2.3 0.4 1 0.3 1.8 1l-1 1.5q-0.8-0.5-1.6-0.8-0.7-0.3-1.5-0.3-0.6 0-1 0.2-0.4 0.1-0.6 0.4-0.3 0.3-0.3 0.7v0.1q0 0.3 0.2 0.5 0.1 0.3 0.4 0.5 0.3 0.2 0.8 0.4 0.5 0.1 1.4 0.3 0.9 0.3 1.5 0.5 0.7 0.3 1.2 0.7 0.4 0.4 0.7 0.9 0.2 0.6 0.2 1.3 0 0.8-0.3 1.4-0.3 0.6-0.8 1.1-0.6 0.4-1.3 0.6-0.8 0.3-1.7 0.3-1.3 0-2.5-0.5z"/><path fill-rule="evenodd" class="c" d="m116.8 23.3h8.4v1.8h-6.4v3h5.7v1.8h-5.7v3h6.5v1.8h-8.5zm-14.2 0h2.1l3.4 5.3 3.5-5.3h2.1v11.3h-2v-8.1l-3.6 5.3-3.6-5.3v8.1h-1.9zm-11 11.3q-0.9-0.3-1.7-0.9-0.7-0.5-1.2-1.2-0.5-0.8-0.8-1.6-0.3-0.9-0.3-1.9 0-1 0.3-1.8 0.3-0.9 0.8-1.6 0.5-0.8 1.2-1.3 0.8-0.6 1.7-0.9 0.9-0.3 1.9-0.3 1.1 0 2 0.3 0.9 0.3 1.6 0.9 0.8 0.5 1.3 1.2 0.5 0.8 0.8 1.6 0.3 0.9 0.3 1.9 0 1-0.3 1.8-0.3 0.9-0.8 1.6-0.6 0.8-1.3 1.3-0.7 0.6-1.6 0.9-0.9 0.3-2 0.3-1 0-1.9-0.3zm3.5-1.9q0.7-0.3 1.2-0.9 0.5-0.5 0.8-1.2 0.3-0.7 0.3-1.6 0-0.8-0.3-1.6-0.3-0.7-0.8-1.2-0.5-0.6-1.2-0.9-0.7-0.3-1.6-0.3-0.8 0-1.5 0.3-0.7 0.3-1.2 0.8-0.6 0.6-0.8 1.3-0.3 0.7-0.3 1.6 0 0.8 0.3 1.6 0.3 0.7 0.8 1.2 0.5 0.6 1.2 0.9 0.7 0.3 1.5 0.3 0.9 0 1.6-0.3zm-20-9.4h2v4.7h5.4v-4.7h2v11.4h-2v-4.8h-5.4v4.8h-2zm135.6 6.9l3 4.3h-2.1l-2-2.9-2 2.9h-2l3-4.2-2.8-4h2.1l1.8 2.6 1.8-2.6h2zm-5.7 1.8c-0.3 1.6-1.5 2.7-3.5 2.7-2.3 0-3.9-1.7-3.9-4.3 0-2.4 1.6-4.3 3.9-4.3 2.3 0 3.5 1.7 3.5 4.1v0.6h-5.6c0.1 1.5 0.9 2.3 2.1 2.3 0.9 0 1.5-0.3 1.8-1.1zm-5.5-2.5h3.7c0-1-0.6-1.8-1.7-1.8-1 0-1.8 0.6-2 1.8zm-3.6 5h-1.9v-12h1.9zm-9.5 3.1h-1.8v-11.3h1.8v0.7c0.4-0.5 1.2-0.9 2.1-0.9 2.4 0 3.8 2 3.8 4.3 0 2.3-1.4 4.3-3.8 4.3-0.9 0-1.7-0.5-2.1-0.9zm0-5.7c0.3 0.6 1 1.1 1.8 1.1 1.4 0 2.3-1.2 2.3-2.7 0-1.5-0.9-2.6-2.3-2.6-0.8 0-1.5 0.4-1.8 1.1z"/><path class="b" d="m182.4 23.9c0-0.6-0.5-1.1-1.1-1.1-0.6 0-1.2 0.5-1.2 1.1 0 0.6 0.6 1.1 1.2 1.1 0.6 0 1.1-0.5 1.1-1.1zm-0.2 2.5h-1.8v8.2h1.8zm-7.6 6c0 1.6 1 2.4 2.5 2.4 0.6 0 1.1-0.1 1.4-0.3v-1.7c-0.3 0.2-0.7 0.4-1.1 0.4-0.6 0-1-0.3-1-1v-4.3h1.9v-1.5h-1.9v-2.2h-1.8v2.2h-1.3v1.5h1.3zm-2.7-9.8h-1.9v12.1h1.9zm-4.2 3.8h-1.8v5.4c-0.2 0.8-0.9 1.3-1.7 1.3-1.1 0-1.6-0.7-1.6-1.7v-5h-1.8v5.3c0 1.8 1 3.1 2.9 3.1 0.9 0 1.7-0.5 2.2-1v0.8h1.8zm-14.1 8.2l3.1-7.9v7.9h1.8v-11.4h-2.1l-3.5 8.8-3.4-8.8h-2.2v11.4h1.8v-7.9l3.1 7.9z"/><path class="c" d="m143.1 21.2v15.5h-0.7v-15.5z"/><path class="c" d="m143.2 21.2v15.7h-0.9v-15.9h0.9zm-0.3 15.4v-15.2h-0.3v15.2z"/></g></svg>