<?xml version="1.0" encoding="UTF-8"?>
<!DOCTYPE svg PUBLIC "-//W3C//DTD SVG 1.1//EN" "http://www.w3.org/Graphics/SVG/1.1/DTD/svg11.dtd">
<!-- Creator: CorelDRAW X8 -->
<svg xmlns="http://www.w3.org/2000/svg" xml:space="preserve" width="1.49167in" height="0.353728in" version="1.1" style="shape-rendering:geometricPrecision; text-rendering:geometricPrecision; image-rendering:optimizeQuality; fill-rule:evenodd; clip-rule:evenodd"
viewBox="0 0 104 25"
 xmlns:xlink="http://www.w3.org/1999/xlink">
 <defs>
  <style type="text/css">
   <![CDATA[
    .fil2 {fill:#FEFEFE;fill-rule:nonzero}
    .fil1 {fill:url(#id0)}
    .fil0 {fill:url(#id1)}
   ]]>
  </style>
  <linearGradient id="id0" gradientUnits="userSpaceOnUse" x1="41.5721" y1="4.50225" x2="41.6743" y2="24.7593">
   <stop offset="0" style="stop-opacity:1; stop-color:#8FC24A"/>
   <stop offset="0.721569" style="stop-opacity:1; stop-color:#6B9C47"/>
   <stop offset="1" style="stop-opacity:1; stop-color:#477644"/>
  </linearGradient>
  <linearGradient id="id1" gradientUnits="userSpaceOnUse" x1="56.2199" y1="9.00587" x2="56.2213" y2="24.0255">
   <stop offset="0" style="stop-opacity:1; stop-color:#848688"/>
   <stop offset="1" style="stop-opacity:1; stop-color:white"/>
  </linearGradient>
 </defs>
 <g id="Layer_x0020_1">
  <metadata id="CorelCorpID_0Corel-Layer"/>
  <g id="_1178437616">
   <g>
    <path class="fil0" d="M12 23l82 0c8,-4 10,-8 10,-11 0,-7 -5,-12 -12,-12l-80 0c-6,0 -12,5 -12,12l0 0c0,6 6,11 12,11z"/>
    <rect class="fil1" x="6" y="5" width="93.0538" height="20.2565" rx="9" ry="10"/>
   </g>
   <polygon class="fil2" points="26,18 30,18 30,17 27,17 27,12 26,12 "/>
   <polygon id="1" class="fil2" points="31,12 31,18 35,18 35,17 32,17 32,15 34,15 34,14 32,14 32,13 35,13 35,12 "/>
   <path id="2" class="fil2" d="M38 12l-3 6 1 0 1 -2 2 0 1 2 1 0 -2 -6 -1 0zm0 1l1 2 -2 0 1 -2z"/>
   <path id="3" class="fil2" d="M43 15l2 3 1 0 -2 -3c1,0 2,-1 2,-2 0,-1 -1,-1 -2,-1l-2 0 0 6 1 0 0 -3 0 0zm0 -2l1 0c1,0 1,0 1,0 0,1 0,1 -1,1l-1 0 0 -1z"/>
   <polygon id="4" class="fil2" points="52,12 51,12 51,16 48,12 47,12 47,18 48,18 48,13 51,18 52,18 "/>
   <polygon id="5" class="fil2" points="59,18 60,13 60,18 61,18 61,12 60,12 58,16 56,12 55,12 55,18 56,18 56,13 58,18 "/>
   <path id="6" class="fil2" d="M68 15c0,-2 -1,-3 -3,-3 -2,0 -3,1 -3,3 0,1 1,3 3,3 2,0 3,-2 3,-3zm-1 0c0,1 -1,2 -2,2 -1,0 -2,-1 -2,-2 0,-2 1,-3 2,-3 1,0 2,1 2,3z"/>
   <path id="7" class="fil2" d="M70 15l2 3 1 0 -1 -3c1,0 1,-1 1,-2 0,-1 -1,-1 -2,-1l-2 0 0 6 1 0 0 -3 0 0zm0 -2l1 0c1,0 1,0 1,0 0,1 0,1 -1,1l-1 0 0 -1z"/>
   <polygon id="8" class="fil2" points="74,12 74,18 78,18 78,17 75,17 75,15 78,15 78,14 75,14 75,13 78,13 78,12 "/>
  </g>
 </g>
</svg>
