<?xml version="1.0" encoding="UTF-8"?>
<!DOCTYPE svg PUBLIC "-//W3C//DTD SVG 1.1//EN" "http://www.w3.org/Graphics/SVG/1.1/DTD/svg11.dtd">
<!-- Creator: CorelDRAW X8 -->
<svg xmlns="http://www.w3.org/2000/svg" xml:space="preserve" width="2.39356in" height="0.562547in" version="1.1" style="shape-rendering:geometricPrecision; text-rendering:geometricPrecision; image-rendering:optimizeQuality; fill-rule:evenodd; clip-rule:evenodd"
viewBox="0 0 308 72"
 xmlns:xlink="http://www.w3.org/1999/xlink">
 <defs>
  <style type="text/css">
   <![CDATA[
    .fil0 {fill:#8FC24A;fill-rule:nonzero}
    .fil1 {fill:#4B3B2D;fill-rule:nonzero}
   ]]>
  </style>
 </defs>
 <g id="Layer_x0020_1">
  <metadata id="CorelCorpID_0Corel-Layer"/>
  <g id="_1178416632">
   <path class="fil0" d="M109 72c-5,0 -8,0 -12,-2 -3,-1 -6,-3 -9,-6 -2,-2 -4,-5 -5,-8 -1,-3 -2,-6 -2,-10 0,-5 1,-9 3,-13 3,-4 6,-7 10,-10 4,-2 9,-3 15,-3 6,0 11,1 15,4 4,2 7,5 9,9l-15 5c-1,-2 -3,-3 -4,-4 -2,0 -3,-1 -5,-1 -2,0 -4,1 -6,2 -2,1 -3,2 -4,4 -1,2 -2,4 -2,7 0,3 1,5 2,7 1,2 2,3 4,4 2,2 4,2 6,2 1,0 2,0 3,-1 1,0 3,-1 3,-1 1,-1 2,-2 3,-3l15 5c-1,2 -3,5 -5,7 -3,2 -5,3 -9,5 -3,1 -6,1 -10,1zm-54 -1l0 -41 -15 30 -9 0 -15 -30 0 41 -16 0 0 -69 17 0 18 36 18 -36 18 0 0 69 -16 0z"/>
   <path class="fil1" d="M176 72c-5,0 -9,-1 -13,-3 -4,-2 -8,-4 -11,-7 -3,-3 -5,-7 -7,-11 -2,-5 -3,-10 -3,-15 0,-5 1,-9 3,-13 2,-5 4,-8 7,-11 3,-4 7,-6 11,-8 4,-2 9,-3 14,-3 6,0 12,2 17,5 5,2 8,6 11,11l-12 9c-2,-3 -4,-6 -7,-8 -3,-1 -6,-2 -10,-2 -2,0 -5,0 -7,1 -2,1 -4,3 -6,5 -1,2 -2,4 -3,7 -1,2 -1,5 -1,8 0,3 0,5 1,8 1,3 2,5 4,7 1,1 3,3 6,4 2,1 4,2 7,2 3,0 6,-1 10,-3 3,-2 5,-4 8,-7l0 15c-6,6 -12,9 -19,9zm18 -25l-14 0 0 -12 27 0 0 36 -13 0 0 -24zm23 24l0 -51 15 0 0 51 -15 0zm0 -57l0 -14 15 0 0 14 -15 0zm25 -14l16 0 0 53c0,2 0,4 1,5 1,1 2,1 4,1 1,0 2,0 3,0 1,-1 1,-1 2,-1l2 11c-2,1 -4,2 -6,3 -3,0 -5,0 -8,0 -4,0 -7,-1 -10,-3 -2,-3 -4,-6 -4,-10l0 -59zm38 0l15 0 0 53c0,2 1,4 2,5 0,1 1,1 3,1 1,0 2,0 3,0 1,-1 2,-1 3,-1l2 11c-2,1 -5,2 -7,3 -3,0 -5,0 -7,0 -5,0 -8,-1 -11,-3 -2,-3 -3,-6 -3,-10l0 -59z"/>
  </g>
 </g>
</svg>
