<?xml version="1.0" encoding="UTF-8"?>
<!DOCTYPE svg PUBLIC "-//W3C//DTD SVG 1.1//EN" "http://www.w3.org/Graphics/SVG/1.1/DTD/svg11.dtd">
<!-- Creator: CorelDRAW X8 -->
<svg xmlns="http://www.w3.org/2000/svg" xml:space="preserve" width="3.69792in" height="0.765945in" version="1.1" style="shape-rendering:geometricPrecision; text-rendering:geometricPrecision; image-rendering:optimizeQuality; fill-rule:evenodd; clip-rule:evenodd"
viewBox="0 0 734 152"
 xmlns:xlink="http://www.w3.org/1999/xlink">
 <defs>
  <style type="text/css">
   <![CDATA[
    .fil0 {fill:#8FC24A;fill-rule:nonzero}
    .fil1 {fill:#4B3B2D;fill-rule:nonzero}
   ]]>
  </style>
 </defs>
 <g id="Layer_x0020_1">
  <metadata id="CorelCorpID_0Corel-Layer"/>
  <path class="fil0" d="M0 61c0,-19 5,-34 15,-45 10,-10 24,-16 40,-16 10,0 20,3 28,8 9,5 15,12 20,21 4,9 6,19 6,31 0,11 -2,21 -7,31 -4,9 -11,16 -20,20 -8,5 -17,7 -27,7 -11,0 -21,-2 -29,-7 -9,-6 -15,-13 -19,-22 -5,-9 -7,-18 -7,-28zm16 0c0,14 3,25 11,33 7,8 16,11 28,11 11,0 20,-4 28,-11 7,-8 11,-20 11,-34 0,-10 -2,-18 -5,-25 -3,-7 -8,-12 -14,-16 -6,-4 -13,-6 -20,-6 -11,0 -20,4 -28,11 -8,8 -11,20 -11,37z"/>
  <path id="1" class="fil0" d="M181 106c-5,5 -10,8 -15,9 -5,2 -10,3 -15,3 -10,0 -17,-2 -21,-6 -5,-5 -8,-10 -8,-17 0,-4 1,-8 3,-11 2,-4 4,-6 7,-8 3,-3 7,-4 10,-5 3,-1 7,-2 13,-2 11,-2 20,-3 25,-5 0,-2 0,-3 0,-4 0,-5 -1,-9 -4,-12 -4,-3 -9,-4 -16,-4 -7,0 -12,1 -15,3 -3,2 -5,6 -7,12l-13 -2c1,-5 3,-10 6,-14 3,-3 7,-6 12,-8 6,-2 12,-3 19,-3 7,0 13,1 17,2 5,2 8,4 10,7 2,2 4,5 4,9 1,3 1,7 1,13l0 19c0,13 0,21 1,24 1,4 2,7 3,10l-14 0c-2,-2 -3,-6 -3,-10zm-1 -31c-5,2 -13,4 -23,5 -6,1 -10,2 -12,3 -3,1 -5,3 -6,5 -1,2 -2,4 -2,6 0,4 2,7 4,10 3,2 7,3 13,3 5,0 10,-1 14,-3 5,-3 8,-6 10,-10 1,-3 2,-8 2,-14l0 -5z"/>
  <polygon id="2" class="fil0" points="216,116 216,2 230,2 230,67 263,34 281,34 250,64 284,116 267,116 240,74 230,84 230,116 "/>
  <path id="3" class="fil1" d="M296 116l0 -113 51 0c5,0 10,1 15,3 4,3 8,6 11,9 4,4 6,8 8,13 2,4 3,9 3,13 0,5 -1,10 -2,14 -2,4 -4,8 -7,11 -2,3 -6,6 -10,8l25 42 -29 0 -21 -36 -18 0 0 36 -26 0zm26 -59l24 0c2,0 4,-1 6,-2 1,-1 3,-3 4,-5 1,-3 1,-5 1,-9 0,-3 0,-5 -2,-8 -1,-2 -2,-4 -4,-5 -2,-1 -4,-2 -6,-2l-23 0 0 31z"/>
  <path id="4" class="fil1" d="M400 116l0 -83 25 0 0 83 -25 0zm0 -93l0 -23 25 0 0 23 -25 0z"/>
  <path id="5" class="fil1" d="M438 75c0,-8 2,-15 5,-22 3,-6 8,-11 13,-15 6,-4 12,-6 19,-6 6,0 11,2 16,5 5,2 9,6 11,11l0 -48 26 0 0 88c0,3 0,4 1,5 1,1 2,2 4,2l0 21c-5,1 -8,2 -11,2 -4,0 -8,-1 -11,-3 -2,-2 -4,-5 -5,-8l0 -4c-3,5 -7,9 -12,11 -5,3 -11,4 -16,4 -6,0 -11,-1 -16,-3 -5,-2 -9,-5 -13,-9 -3,-4 -6,-9 -8,-14 -2,-5 -3,-11 -3,-17zm64 10l0 -17c-1,-3 -2,-5 -4,-7 -2,-2 -5,-4 -7,-5 -3,-1 -5,-2 -8,-2 -2,0 -5,1 -7,2 -3,1 -5,3 -6,5 -2,2 -3,4 -4,6 -1,3 -2,6 -2,9 0,3 1,5 2,8 1,2 2,5 4,7 2,1 4,3 7,4 2,1 5,2 8,2 1,0 3,-1 5,-1 2,-1 3,-2 5,-3 1,0 3,-2 4,-3 1,-2 2,-3 3,-5z"/>
  <path id="6" class="fil1" d="M580 118c-6,0 -11,-1 -15,-3 -5,-2 -9,-5 -12,-9 -3,-4 -6,-9 -8,-14 -1,-5 -2,-10 -2,-16 0,-6 1,-12 3,-17 1,-5 4,-10 8,-14 3,-4 7,-7 12,-9 5,-3 10,-4 16,-4 6,0 11,2 16,4 5,3 9,7 12,11l0 -13 22 0 0 77c0,9 -2,16 -6,22 -4,6 -10,11 -17,14 -8,3 -16,5 -26,5 -9,0 -16,-1 -23,-4 -6,-3 -12,-7 -17,-13l14 -14c3,4 7,7 12,9 4,2 9,3 14,3 5,0 8,-1 12,-2 3,-2 6,-4 8,-7 2,-3 3,-7 3,-12l0 -8c-2,4 -6,8 -11,10 -5,3 -10,4 -15,4zm9 -20c2,0 4,0 5,-1 2,-1 4,-1 5,-2 2,-1 3,-3 4,-4 2,-2 3,-3 3,-5l0 -17c-1,-3 -2,-6 -4,-8 -2,-2 -5,-4 -7,-5 -2,-1 -5,-2 -8,-2 -2,0 -5,1 -7,2 -2,1 -4,3 -6,5 -2,2 -3,4 -4,7 -1,3 -1,6 -1,8 0,4 0,6 1,9 1,2 3,5 4,7 2,2 4,3 7,4 2,1 5,2 8,2z"/>
  <path id="7" class="fil1" d="M689 118c-7,0 -13,-1 -19,-3 -5,-3 -10,-6 -14,-10 -4,-3 -6,-8 -8,-13 -3,-5 -4,-10 -4,-16 0,-8 2,-15 6,-22 3,-6 9,-12 15,-16 7,-4 15,-6 24,-6 10,0 18,2 25,6 6,4 11,10 15,16 3,6 5,13 5,21 0,1 0,3 0,4 0,2 0,3 0,4l-62 0c0,4 1,7 3,9 1,3 4,4 7,6 2,1 5,2 8,2 4,0 8,-1 11,-3 3,-2 6,-4 7,-7l22 6c-2,4 -5,8 -9,11 -4,4 -9,6 -14,8 -5,2 -11,3 -18,3zm-18 -51l36 0c0,-3 -1,-6 -3,-8 -1,-3 -3,-5 -6,-6 -3,-2 -6,-2 -9,-2 -3,0 -6,0 -9,2 -2,1 -4,3 -6,6 -2,2 -3,5 -3,8z"/>
 </g>
</svg>
