<?xml version="1.0" encoding="UTF-8"?>
<!DOCTYPE svg PUBLIC "-//W3C//DTD SVG 1.1//EN" "http://www.w3.org/Graphics/SVG/1.1/DTD/svg11.dtd">
<!-- Creator: CorelDRAW X8 -->
<svg xmlns="http://www.w3.org/2000/svg" xml:space="preserve" width="1.49166in" height="0.353728in" version="1.1" style="shape-rendering:geometricPrecision; text-rendering:geometricPrecision; image-rendering:optimizeQuality; fill-rule:evenodd; clip-rule:evenodd"
viewBox="0 0 101 24"
 xmlns:xlink="http://www.w3.org/1999/xlink">
 <defs>
  <style type="text/css">
   <![CDATA[
    .fil2 {fill:#FEFEFE;fill-rule:nonzero}
    .fil1 {fill:url(#id0)}
    .fil0 {fill:url(#id1)}
   ]]>
  </style>
  <linearGradient id="id0" gradientUnits="userSpaceOnUse" x1="40.3267" y1="4.3674" x2="40.4259" y2="24.0178">
   <stop offset="0" style="stop-opacity:1; stop-color:#8FC24A"/>
   <stop offset="0.721569" style="stop-opacity:1; stop-color:#6B9C47"/>
   <stop offset="1" style="stop-opacity:1; stop-color:#477644"/>
  </linearGradient>
  <linearGradient id="id1" gradientUnits="userSpaceOnUse" x1="54.5358" y1="8.73614" x2="54.5372" y2="23.3059">
   <stop offset="0" style="stop-opacity:1; stop-color:#848688"/>
   <stop offset="1" style="stop-opacity:1; stop-color:white"/>
  </linearGradient>
 </defs>
 <g id="Layer_x0020_1">
  <metadata id="CorelCorpID_0Corel-Layer"/>
  <g id="_335343000">
   <g>
    <path class="fil0" d="M12 22l79 0c7,-4 10,-7 10,-11 0,-6 -5,-11 -12,-11l-77 0c-7,0 -12,5 -12,11l0 0c0,6 5,11 12,11z"/>
    <rect class="fil1" x="6" y="4" width="90.2668" height="19.6499" rx="8" ry="10"/>
   </g>
   <path class="fil2" d="M31 15c0,1 1,2 3,2 1,0 2,-1 2,-2 0,-1 0,-2 -2,-2l-1 0c-1,-1 -1,-1 -1,-2 0,0 1,-1 1,-1 1,0 2,1 2,1l1 0c0,-1 -1,-2 -3,-2 -1,0 -2,1 -2,3 0,1 1,1 2,2l1 0c1,0 1,1 1,1 0,1 0,1 -1,1 -1,0 -2,0 -2,-1l-1 0z"/>
   <path id="1" class="fil2" d="M41 17c2,0 3,-1 3,-3l0 -5 -2 0 0 5c0,1 0,2 -1,2 -1,0 -2,-1 -2,-2l0 -5 -1 0 0 5c0,2 1,3 3,3z"/>
   <path id="2" class="fil2" d="M50 13c0,0 1,-1 1,-1 0,-2 -1,-3 -3,-3l-3 0 0 8 3 0c2,0 3,-1 3,-2 0,-1 -1,-2 -1,-2zm-3 0l0 -2 1 0c1,0 1,0 1,1 0,0 0,1 -1,1l-1 0zm0 1l1 0c1,0 2,0 2,1 0,1 -1,1 -2,1l-1 0 0 -2z"/>
   <polygon id="3" class="fil2" points="57,17 59,12 59,17 60,17 60,9 59,9 56,15 54,9 52,9 52,17 54,17 54,12 56,17 "/>
   <polygon id="4" class="fil2" points="63,9 62,9 62,17 63,17 "/>
   <polygon id="5" class="fil2" points="64,11 67,11 67,17 68,17 68,11 71,11 71,9 64,9 "/>
  </g>
 </g>
</svg>
